<svg xmlns="http://www.w3.org/2000/svg" viewBox="0 0 1200 800" role="img" aria-label="Lifestyle outdoor concept">
  <defs>
    <linearGradient id="sky" x1="0" x2="0" y1="0" y2="1">
      <stop offset="0%" stop-color="#89c6e5"/>
      <stop offset="100%" stop-color="#d8eff8"/>
    </linearGradient>
    <linearGradient id="ground" x1="0" x2="1" y1="0" y2="0">
      <stop offset="0%" stop-color="#4f7f58"/>
      <stop offset="100%" stop-color="#7faf70"/>
    </linearGradient>
  </defs>
  <rect width="1200" height="800" fill="url(#sky)"/>
  <circle cx="930" cy="130" r="72" fill="#fff7c0"/>
  <path d="M0 500C180 420 300 440 470 500s308 96 730 14v286H0z" fill="url(#ground)"/>
  <rect x="120" y="120" width="960" height="520" rx="34" fill="#ffffff" opacity="0.18"/>
  <ellipse cx="586" cy="596" rx="182" ry="56" fill="#2d4b35" opacity="0.6"/>
  <circle cx="590" cy="330" r="90" fill="#e4b894"/>
  <path d="M520 317c16-54 59-94 111-94 52 0 96 39 112 92-72-21-148-20-223 2z" fill="#2a2420"/>
  <rect x="548" y="396" width="84" height="88" rx="34" fill="#e4b894"/>
  <path d="M440 650l58-172h184l58 172H440z" fill="#2f6d58"/>
  <text x="100" y="736" fill="#173929" font-family="Space Grotesk, Segoe UI, sans-serif" font-size="40" font-weight="600">Lifestyle Outdoor Session</text>
</svg>
